<svg width="30" height="30" viewBox="0 0 30 30" fill="none" xmlns="http://www.w3.org/2000/svg">
<g clip-path="url(#clip0_2048_241)">
<path d="M15.0209 30C6.7364 30 0 23.3054 0 15.0209C0 6.7364 6.7364 0 15.0209 0C23.3054 0 30.0418 6.7364 30.0418 15.0209C30 23.3054 23.3054 30 15.0209 30Z" fill="#3E5C9A"/>
<path d="M12.7196 24.0586H16.3598V14.9372H18.9121L19.1632 11.8828H16.3598C16.3598 11.8828 16.3598 10.7531 16.3598 10.1255C16.3598 9.41421 16.4853 9.12132 17.1966 9.12132C17.7406 9.12132 19.1632 9.12132 19.1632 9.12132V5.94141C19.1632 5.94141 17.0711 5.94141 16.6527 5.94141C13.933 5.94141 12.7196 7.1548 12.7196 9.41421C12.7196 11.4226 12.7196 11.841 12.7196 11.841H10.8368V14.9372H12.7196V24.0586Z" fill="white"/>
</g>
<defs>
<clipPath id="clip0_2048_241">
<rect width="30" height="30" fill="white"/>
</clipPath>
</defs>
</svg>
