<svg width="30" height="30" viewBox="0 0 30 30" fill="none" xmlns="http://www.w3.org/2000/svg">
<g clip-path="url(#clip0_2048_242)">
<path d="M0 15C0 6.71575 6.71575 0 15 0C23.2843 0 30 6.71575 30 15C30 23.2843 23.2843 30 15 30C6.71575 30 0 23.2843 0 15Z" fill="#0077B5"/>
<path fill-rule="evenodd" clip-rule="evenodd" d="M10.8243 9.26419C10.8243 10.2449 10.0861 11.0296 8.90075 11.0296H8.879C7.73781 11.0296 7 10.2449 7 9.26419C7 8.26275 7.76025 7.5 8.92313 7.5C10.0861 7.5 10.8022 8.26275 10.8243 9.26419ZM10.6003 12.4236V22.6373H7.201V12.4236H10.6003ZM22.8595 22.6373L22.8596 16.7811C22.8596 13.6439 21.1826 12.1838 18.9457 12.1838C17.1409 12.1838 16.3328 13.1751 15.8817 13.8706V12.4239H12.4819C12.5268 13.3823 12.4819 22.6375 12.4819 22.6375H15.8817V16.9334C15.8817 16.6281 15.9038 16.3236 15.9936 16.1051C16.2393 15.4953 16.7987 14.8639 17.7378 14.8639C18.9684 14.8639 19.4603 15.8004 19.4603 17.1729V22.6373H22.8595Z" fill="white"/>
</g>
<defs>
<clipPath id="clip0_2048_242">
<rect width="30" height="30" fill="white"/>
</clipPath>
</defs>
</svg>
