<svg width="30" height="30" viewBox="0 0 30 30" fill="none" xmlns="http://www.w3.org/2000/svg">
<g clip-path="url(#clip0_2048_245)">
<path d="M15.0209 30C6.7364 30 0 23.3054 0 15.0209C0 6.7364 6.7364 0 15.0209 0C23.3054 0 30.0418 6.7364 30.0418 15.0209C30 23.3054 23.3054 30 15.0209 30Z" fill="#29A9E1"/>
<path d="M7.0293 20.0418C8.49373 20.9623 10.2092 21.5063 12.0502 21.5063C18.159 21.5063 21.59 16.3598 21.3808 11.7573C22.0084 11.2971 22.5942 10.7113 23.0126 10.0418C22.4268 10.2929 21.7992 10.4602 21.1297 10.5439C21.7992 10.1255 22.3431 9.4979 22.5523 8.74476C21.9247 9.12133 21.2134 9.41422 20.4603 9.53974C19.8745 8.91212 18.9958 8.49371 18.0753 8.49371C15.9414 8.49371 14.3933 10.4602 14.8954 12.5104C12.1757 12.3849 9.74896 11.0879 8.11716 9.07949C7.2385 10.5439 7.65691 12.4686 9.12135 13.4728C8.57741 13.4728 8.07532 13.3054 7.61507 13.0544C7.57323 14.5607 8.6611 15.9833 10.2511 16.318C9.7908 16.4435 9.28871 16.4853 8.78662 16.3598C9.20503 17.6569 10.4184 18.6192 11.841 18.6192C10.5021 19.7489 8.74478 20.251 7.0293 20.0418Z" fill="white"/>
</g>
<defs>
<clipPath id="clip0_2048_245">
<rect width="30" height="30" fill="white"/>
</clipPath>
</defs>
</svg>
