<svg width="19" height="21" viewBox="0 0 19 21" fill="none" xmlns="http://www.w3.org/2000/svg">
<path d="M10.5528 8.49364C11.0804 8.49364 11.5121 8.06195 11.5121 7.53433V5.61571H13.4308C13.9584 5.61571 14.3901 5.18402 14.3901 4.6564C14.3901 4.12877 13.9584 3.69708 13.4308 3.69708H11.5121V1.77846C11.5121 1.25084 11.0804 0.819153 10.5528 0.819153C10.0252 0.819153 9.59351 1.25084 9.59351 1.77846V3.69708H7.67489C7.14727 3.69708 6.71558 4.12877 6.71558 4.6564C6.71558 5.18402 7.14727 5.61571 7.67489 5.61571H9.59351V7.53433C9.59351 8.06195 10.0252 8.49364 10.5528 8.49364Z" fill="white"/>
<path d="M5.75473 17.1274C4.69949 17.1274 3.8457 17.9908 3.8457 19.046C3.8457 20.1012 4.69949 20.9646 5.75473 20.9646C6.80997 20.9646 7.67335 20.1012 7.67335 19.046C7.67335 17.9908 6.80997 17.1274 5.75473 17.1274Z" fill="white"/>
<path d="M15.3485 17.1274C14.2932 17.1274 13.4395 17.9908 13.4395 19.046C13.4395 20.1012 14.2932 20.9646 15.3485 20.9646C16.4037 20.9646 17.2671 20.1012 17.2671 19.046C17.2671 17.9908 16.4037 17.1274 15.3485 17.1274Z" fill="white"/>
<path d="M6.81111 12.3309H13.958C14.6775 12.3309 15.3106 11.9375 15.6368 11.3428L18.8792 5.4622C19.1382 5.00173 18.9656 4.41655 18.5051 4.15753C18.0446 3.90811 17.4595 4.07119 17.21 4.53166L13.958 10.4122H7.22361L3.39596 2.32525C3.24247 1.98949 2.89712 1.77844 2.53258 1.77844H0.959311C0.43169 1.77844 0 2.21013 0 2.73775C0 3.26537 0.43169 3.69706 0.959311 3.69706H1.91862L5.37214 10.9782L4.07707 13.3189C3.37677 14.6044 4.29771 16.1681 5.75586 16.1681H16.3083C16.8359 16.1681 17.2676 15.7364 17.2676 15.2088C17.2676 14.6812 16.8359 14.2495 16.3083 14.2495H5.75586L6.81111 12.3309Z" fill="white"/>
</svg>
