<svg width="22" height="22" viewBox="0 0 22 22" fill="none" xmlns="http://www.w3.org/2000/svg">
<path d="M7.4223 16.958C8.43063 16.958 9.25531 17.7837 9.25531 18.792C9.25513 19.8002 8.43053 20.625 7.4223 20.625C6.41408 20.625 5.59826 19.8002 5.59808 18.792C5.59808 17.7837 6.41397 16.958 7.4223 16.958ZM16.5893 16.958C17.5975 16.9582 18.4223 17.7838 18.4223 18.792C18.4221 19.8001 17.5974 20.6248 16.5893 20.625C15.5811 20.625 14.7653 19.8002 14.7651 18.792C14.7651 17.7837 15.581 16.958 16.5893 16.958ZM4.34222 2.29199C4.69056 2.29199 5.02075 2.49362 5.16742 2.81445L8.82465 10.542H15.2602L18.3676 4.92285C18.6059 4.48285 19.1649 4.3271 19.6049 4.56543C20.0447 4.81298 20.2097 5.37163 19.9623 5.81152L16.8637 11.4307C16.5521 11.9989 15.9475 12.3749 15.2602 12.375H8.43109L7.4223 14.208H17.5053C18.0095 14.208 18.4223 14.6208 18.4223 15.125C18.4223 15.6292 18.0095 16.042 17.5053 16.042H7.4223C6.02907 16.042 5.14892 14.5476 5.81781 13.3193L7.05609 11.082L3.75531 4.125H2.83929C2.33513 4.125 1.9223 3.71217 1.9223 3.20801C1.92248 2.70399 2.33524 2.29199 2.83929 2.29199H4.34222ZM12.0053 1.375C12.5095 1.375 12.9223 1.78783 12.9223 2.29199V4.125H14.7553C15.2595 4.125 15.6723 4.53783 15.6723 5.04199C15.6721 5.54601 15.2594 5.95801 14.7553 5.95801H12.9223V7.79199C12.9221 8.29601 12.5094 8.70801 12.0053 8.70801C11.5014 8.70783 11.0895 8.2959 11.0893 7.79199V5.95801H9.25531C8.7514 5.95783 8.33947 5.5459 8.33929 5.04199C8.33929 4.53793 8.75129 4.12518 9.25531 4.125H11.0893V2.29199C11.0893 1.78793 11.5013 1.37518 12.0053 1.375Z" fill="#656565"/>
</svg>
