<svg width="20" height="20" viewBox="0 0 20 20" xmlns="http://www.w3.org/2000/svg">
  <!-- Vòng tròn outline -->
  <circle cx="10" cy="10" r="9" fill="white" stroke="#EF4444" stroke-width="2"/>
  <!-- Dấu X -->
  <path d="M13.5355 6.46447C13.8308 6.75974 13.8308 7.23462 13.5355 7.52989L11.0654 10L13.5355 12.4701C13.8308 12.7654 13.8308 13.2403 13.5355 13.5355C13.2403 13.8308 12.7654 13.8308 12.4701 13.5355L10 11.0654L7.52989 13.5355C7.23462 13.8308 6.75974 13.8308 6.46447 13.5355C6.1692 13.2403 6.1692 12.7654 6.46447 12.4701L8.93457 10L6.46447 7.52989C6.1692 7.23462 6.1692 6.75974 6.46447 6.46447C6.75974 6.1692 7.23462 6.1692 7.52989 6.46447L10 8.93457L12.4701 6.46447C12.7654 6.1692 13.2403 6.1692 13.5355 6.46447Z" fill="#EF4444"/>
</svg>
