<svg width="9" height="7" viewBox="0 0 9 7" fill="none" xmlns="http://www.w3.org/2000/svg">
<path d="M3.98 2.72C3.98 3.6 3.68667 4.38667 3.1 5.08C2.51333 5.77333 1.73333 6.29333 0.76 6.64L0.4 5.8C0.666667 5.65333 0.96 5.44 1.28 5.16C1.6 4.86667 1.88667 4.53333 2.14 4.16L1.16 3.5C0.853333 3.28667 0.646667 3.06 0.54 2.82C0.433333 2.56667 0.38 2.3 0.38 2.02C0.38 1.55333 0.553333 1.16667 0.9 0.86C1.24667 0.54 1.63333 0.38 2.06 0.38C2.39333 0.38 2.67333 0.446666 2.9 0.58C3.12667 0.713333 3.32 0.84 3.48 0.96C3.65333 1.22667 3.78 1.51333 3.86 1.82C3.94 2.11333 3.98 2.41333 3.98 2.72ZM8.34 2.72C8.34 3.6 8.04667 4.38667 7.46 5.08C6.87333 5.77333 6.09333 6.29333 5.12 6.64L4.76 5.8C5.02667 5.65333 5.32 5.44 5.64 5.16C5.96 4.86667 6.24667 4.53333 6.5 4.16L5.52 3.5C5.21333 3.28667 5.00667 3.06 4.9 2.82C4.79333 2.56667 4.74 2.3 4.74 2.02C4.74 1.55333 4.91333 1.16667 5.26 0.86C5.60667 0.54 5.99333 0.38 6.42 0.38C6.75333 0.38 7.03333 0.446666 7.26 0.58C7.48667 0.713333 7.68 0.84 7.84 0.96C8.01333 1.22667 8.14 1.51333 8.22 1.82C8.3 2.11333 8.34 2.41333 8.34 2.72Z" fill="#656565"/>
</svg>
