<svg width="24" height="24" viewBox="0 0 24 24" fill="none" xmlns="http://www.w3.org/2000/svg">
<path d="M16 7C17.1 7 18 7.9 18 9V19C18 20.1 17.1 21 16 21H8C6.9 21 6 20.1 6 19V9C6 7.9 6.9 7 8 7H16ZM14.8301 11.1699C14.4401 10.7799 13.8099 10.7799 13.4199 11.1699L12 12.5898L10.5801 11.1699C10.1901 10.7799 9.55992 10.7799 9.16992 11.1699C8.77992 11.5599 8.77992 12.2001 9.16992 12.5801L10.5898 14L9.16992 15.4199C8.98267 15.6068 8.87793 15.8605 8.87793 16.125C8.87793 16.3895 8.98267 16.6432 9.16992 16.8301C9.55992 17.2201 10.1901 17.2201 10.5801 16.8301L12 15.4102L13.4199 16.8301C13.8099 17.2201 14.4401 17.2201 14.8301 16.8301C15.2201 16.4401 15.2201 15.8099 14.8301 15.4199L13.4102 14L14.8301 12.5801C15.2201 12.1901 15.2201 11.5599 14.8301 11.1699ZM14.0898 3C14.3498 3 14.61 3.11004 14.79 3.29004L15.5 4H18C18.55 4 19 4.45 19 5C19 5.55 18.55 6 18 6H6C5.45 6 5 5.55 5 5C5 4.45 5.45 4 6 4H8.5L9.20996 3.29004C9.38996 3.11004 9.65016 3 9.91016 3H14.0898Z" fill="#E52B2F"/>
</svg>
