<svg width="26" height="26" viewBox="0 0 26 26" fill="none" xmlns="http://www.w3.org/2000/svg">
<g clip-path="url(#clip0_4267_901)">
<path d="M13.0181 26C5.83822 26 0 20.198 0 13.0181C0 5.83822 5.83822 0 13.0181 0C20.198 0 26.0363 5.83822 26.0363 13.0181C26 20.198 20.198 26 13.0181 26Z" fill="#3E5C9A"/>
<path d="M11.0234 20.8508H14.1782V12.9456H16.3902L16.6078 10.2985H14.1782C14.1782 10.2985 14.1782 9.31939 14.1782 8.77545C14.1782 8.15899 14.287 7.90516 14.9035 7.90516C15.3749 7.90516 16.6078 7.90516 16.6078 7.90516V5.14923C16.6078 5.14923 14.7947 5.14923 14.432 5.14923C12.075 5.14923 11.0234 6.20083 11.0234 8.15899C11.0234 9.89958 11.0234 10.2622 11.0234 10.2622H9.3916V12.9456H11.0234V20.8508Z" fill="white"/>
</g>
<defs>
<clipPath id="clip0_4267_901">
<rect width="26" height="26" fill="white"/>
</clipPath>
</defs>
</svg>
