<svg width="17" height="15" viewBox="0 0 17 15" fill="none" xmlns="http://www.w3.org/2000/svg">
<g clip-path="url(#clip0_2013_181)">
<path d="M17 1.54129V13.4554C17 14.9967 15.8397 14.9967 15.3236 14.9967H11.7292V9.19085H13.9377L14.2679 6.92746H11.7254V5.48103C11.7254 4.82478 11.9304 4.37946 12.9967 4.37946H14.3551V2.35379C14.1199 2.32701 13.3154 2.26339 12.3743 2.26339C10.4163 2.26339 9.07299 3.31808 9.07299 5.2567V6.92746H6.85692V9.19085H9.07299V15H1.67641C0.369565 14.9967 0 13.9141 0 13.4587V1.54129C0 1.08594 0.369565 0 1.67641 0H15.3198C16.6304 0 17 1.08594 17 1.54129Z" fill="#18364D"/>
</g>
<defs>
<clipPath id="clip0_2013_181">
<rect width="17" height="15" fill="white"/>
</clipPath>
</defs>
</svg>
