<svg width="25" height="26" viewBox="0 0 25 26" fill="none" xmlns="http://www.w3.org/2000/svg">
<g clip-path="url(#clip0_4267_895)">
<path d="M24.7019 13.2432C24.7019 12.178 24.6188 11.4007 24.439 10.5946H12.7432V15.4024H19.6083C19.47 16.5972 18.7226 18.3966 17.0616 19.6057L17.0383 19.7666L20.7363 22.746L20.9925 22.7726C23.3455 20.5126 24.7019 17.1874 24.7019 13.2432Z" fill="#4285F4"/>
<path d="M12.7436 25.9107C16.1069 25.9107 18.9305 24.7591 20.9929 22.7726L17.062 19.6057C16.0101 20.3686 14.5982 20.9012 12.7436 20.9012C9.44939 20.9012 6.6535 18.6413 5.65684 15.5176L5.51075 15.5305L1.66552 18.6254L1.61523 18.7708C3.66371 23.0029 7.87144 25.9107 12.7436 25.9107Z" fill="#34A853"/>
<path d="M5.65646 15.5177C5.39348 14.7116 5.24129 13.8478 5.24129 12.9554C5.24129 12.0628 5.39348 11.1992 5.64262 10.3931L5.63566 10.2214L1.74224 7.07678L1.61485 7.1398C0.770579 8.89599 0.286133 10.8681 0.286133 12.9554C0.286133 15.0426 0.770579 17.0146 1.61485 18.7708L5.65646 15.5177Z" fill="#FBBC05"/>
<path d="M12.7436 5.00937C15.0827 5.00937 16.6606 6.06018 17.5603 6.93833L21.0759 3.36839C18.9168 1.28115 16.1069 0 12.7436 0C7.87144 0 3.66371 2.90773 1.61523 7.13978L5.643 10.3931C6.6535 7.26938 9.44939 5.00937 12.7436 5.00937Z" fill="#EB4335"/>
</g>
<defs>
<clipPath id="clip0_4267_895">
<rect width="25" height="26" fill="white"/>
</clipPath>
</defs>
</svg>
