<svg width="22" height="22" viewBox="0 0 22 22" fill="none" xmlns="http://www.w3.org/2000/svg">
<g clip-path="url(#clip0_82_359)">
<path d="M7.13031 0.498929C7.59369 0.136961 8.04432 0 8.54503 0C12.4141 0.00711485 16.2823 0.0115616 20.1513 0.0231233C20.3762 0.0231233 20.6083 0.0515826 20.825 0.11028C21.6261 0.329951 21.9784 0.806646 21.9803 1.64798C21.9885 4.89413 22.0012 8.14028 22.0003 11.3855C22.0003 14.4093 21.9848 17.4332 21.9757 20.4561C21.9721 21.4931 21.4741 21.9947 20.4244 21.9956C16.3888 21.9991 12.3531 22 8.31744 21.9964C7.26414 21.9964 6.76526 21.4966 6.75979 20.4659C6.75615 19.768 7.11514 19.4212 7.83676 19.4253C8.48676 19.428 9.13586 19.4253 9.83684 19.4253C9.84686 19.2403 9.86233 19.0838 9.86233 18.9273C9.86233 13.5618 9.85687 8.19631 9.86415 2.83082C9.86415 2.5151 9.77312 2.30343 9.50638 2.12734C8.8409 1.688 8.18816 1.23087 7.53088 0.780855C7.41071 0.699034 7.29418 0.612766 7.13031 0.49715V0.498929ZM21.0653 19.4458C21.0653 19.2537 21.0653 19.1078 21.0653 18.962C21.0653 13.5965 21.0653 8.23099 21.0653 2.86639C21.0653 2.5397 20.8975 2.37606 20.5619 2.37547C17.4821 2.37992 14.4023 2.38436 11.3226 2.3897C10.7718 2.39059 10.7736 2.39148 10.7736 2.92776C10.7718 8.27813 10.77 13.6285 10.7672 18.9789C10.7672 19.1229 10.7672 19.267 10.7672 19.4467H21.0653V19.4458ZM15.0387 20.5841C15.0542 20.2444 14.7929 20.0087 14.3914 19.9989C13.99 19.9901 13.7041 20.2088 13.6895 20.5352C13.675 20.8678 13.9444 21.1106 14.3414 21.1213C14.7492 21.1329 15.0223 20.9212 15.0378 20.5841H15.0387ZM16.1129 1.64531C16.0993 1.59906 16.0847 1.55282 16.0711 1.50657C14.9295 1.50657 13.7878 1.49412 12.6326 1.5955C12.7245 1.72001 12.831 1.79828 12.9376 1.79917C13.9053 1.80806 14.8721 1.80806 15.8398 1.79739C15.9318 1.7965 16.0219 1.69867 16.1138 1.64531H16.1129Z" fill="#656565"/>
<path d="M6.41902 17.5861H0.169334C0.126546 17.5159 0.101056 17.4927 0.0983247 17.4669C0.00819812 16.6985 0.0109292 16.6745 0.787475 16.6923C1.90541 16.7181 3.02972 16.7163 4.13673 16.8471C4.91964 16.9396 5.67798 17.233 6.44724 17.4358C6.43814 17.4856 6.42813 17.5354 6.41902 17.5852V17.5861Z" fill="#656565"/>
<path d="M8.36501 5.8662C8.12558 5.73013 7.90345 5.61451 7.69224 5.482C6.4241 4.68425 5.02668 4.2369 3.54551 4.01812C2.87366 3.91851 2.79992 3.79934 3.02387 3.07095C4.15455 3.23726 5.27703 3.45427 6.32396 3.93185C6.87018 4.18087 7.3727 4.52149 7.91893 4.76873C8.42509 4.99819 8.48153 5.35749 8.3641 5.8662H8.36501Z" fill="#656565"/>
<path d="M8.36901 16.5776C7.85557 16.3277 7.40402 16.0431 6.9106 15.8803C5.85275 15.5308 4.77396 15.2436 3.70246 14.9314C3.64419 14.9145 3.58411 14.9065 3.52494 14.8923C2.88039 14.7402 2.82668 14.645 3.02332 13.9086C3.85085 14.115 4.69476 14.2795 5.50499 14.541C6.30521 14.7998 7.08448 15.1306 7.84828 15.4801C8.48008 15.7683 8.4646 15.8003 8.3681 16.5776H8.36901Z" fill="#656565"/>
<path d="M3.01578 6.17657C4.89478 6.44249 6.63814 6.98678 8.20307 8.01043C8.45342 8.17407 8.45888 8.25322 8.3551 8.89534C8.19943 8.8144 8.05195 8.74948 7.91721 8.66588C6.57806 7.83522 5.10872 7.35764 3.55108 7.11485C2.88378 7.01079 2.83735 6.92986 3.01669 6.17657H3.01578Z" fill="#656565"/>
<path d="M2.97052 13.2132V12.3772C3.34286 12.4572 3.67515 12.523 4.00561 12.6004C5.32929 12.9108 6.63749 13.2621 7.82825 13.9407C8.45186 14.2964 8.46005 14.2822 8.36992 15.0941C6.72033 14.0136 4.84497 13.6214 2.97052 13.2141V13.2132Z" fill="#656565"/>
<path d="M2.96325 7.68225C3.66332 7.83789 4.30877 7.97129 4.94876 8.12604C5.99933 8.37951 6.97616 8.80907 7.902 9.35335C8.47281 9.68953 8.47827 9.69575 8.35082 10.425C8.19605 10.3432 8.04948 10.2774 7.91384 10.1929C6.58743 9.37114 5.119 8.93535 3.58867 8.66588C3.51402 8.65254 3.44028 8.63475 3.36472 8.6303C3.02151 8.60718 2.88496 8.43109 2.93958 8.10114C2.95596 8.00153 2.95141 7.89748 2.96325 7.68225Z" fill="#656565"/>
<path d="M8.34173 13.5227C8.15055 13.4177 7.96757 13.3226 7.79004 13.2194C6.48093 12.459 5.03162 12.0979 3.56138 11.7982C2.88133 11.6595 2.84492 11.6194 3.01242 10.8448C3.34471 10.9133 3.67881 10.9764 4.01019 11.0511C5.3721 11.3544 6.69942 11.7484 7.9093 12.4581C8.471 12.7872 8.49103 12.8085 8.34082 13.5236L8.34173 13.5227Z" fill="#656565"/>
<path d="M3.02152 4.62466C4.5473 4.85768 5.99297 5.21164 7.3121 5.95959C7.49599 6.06364 7.66805 6.1926 7.86196 6.27086C8.37359 6.4763 8.52198 6.83294 8.3572 7.38167C8.06588 7.21892 7.77639 7.06861 7.49872 6.90053C6.29248 6.17036 4.95879 5.79328 3.57503 5.5656C2.88133 5.45088 2.81851 5.36994 3.02061 4.62466H3.02152Z" fill="#656565"/>
<path d="M3.02423 9.29111C3.60504 9.41829 4.19223 9.5339 4.77214 9.6762C5.86185 9.94389 6.88511 10.3672 7.87377 10.8937C8.33168 11.1374 8.51194 11.4336 8.35991 11.9796C8.24247 11.9263 8.12503 11.8871 8.02307 11.8249C6.6566 10.9862 5.14266 10.5469 3.575 10.2561C2.88039 10.1271 2.82304 10.0479 3.02332 9.29111H3.02423Z" fill="#656565"/>
<path d="M7.24926 3.42579C6.78406 3.22124 6.36894 3.01402 5.9356 2.85394C5.49862 2.69297 5.0489 2.556 4.59463 2.44928C3.97102 2.30254 3.89637 2.19048 4.12305 1.42474C4.79036 1.63552 5.46039 1.83829 6.12314 2.06063C6.34982 2.13712 6.56193 2.25807 6.77769 2.36479C7.17401 2.56282 7.3312 2.91649 7.24926 3.42579Z" fill="#656565"/>
<path d="M1.21759 9.94923C0.865281 9.94923 0.5685 9.95546 0.27172 9.94478C0.209814 9.94211 0.126971 9.89231 0.0932871 9.84073C-0.148871 9.45831 0.106032 9.00918 0.563038 9.00118C0.653165 8.9994 0.745112 9.00651 0.834328 8.99673C1.13657 8.96293 1.24217 9.10256 1.21941 9.3836C1.20576 9.55525 1.21668 9.72867 1.21668 9.95012L1.21759 9.94923Z" fill="#656565"/>
<path d="M1.19625 10.6589C1.2008 10.6732 1.20808 10.6865 1.209 10.7007C1.24996 11.5163 1.14891 11.5972 0.331399 11.4772C-0.0190937 11.4256 0.0619292 11.1792 0.0546462 10.972C0.0482737 10.7683 0.0164107 10.5344 0.345965 10.5371C0.624538 10.5389 0.904021 10.5371 1.18259 10.5371C1.18715 10.5771 1.1917 10.618 1.19625 10.6581V10.6589Z" fill="#656565"/>
<path d="M0.683426 14.5863C0.0680162 14.5783 0.0643747 14.5756 0.0561814 14.155C0.0470777 13.6614 0.0634644 13.6445 0.584196 13.6365C0.705275 13.6347 0.841831 13.5991 0.941971 13.6436C1.05122 13.6916 1.13406 13.809 1.20962 13.9095C1.23875 13.9478 1.21508 14.0242 1.21508 14.0829C1.21872 14.5917 1.21508 14.5952 0.683426 14.5872V14.5863Z" fill="#656565"/>
<path d="M1.16663 16.0885C0.96635 16.0885 0.789738 16.0911 0.613127 16.0885C0.0878432 16.0796 -0.0705612 15.875 0.0769187 15.3761C0.100588 15.2978 0.204371 15.24 0.27629 15.1786C0.294497 15.1626 0.334553 15.1689 0.364596 15.1689C1.21488 15.1662 1.28589 15.0079 1.16663 16.0893V16.0885Z" fill="#656565"/>
<path d="M0.66182 12.0748C0.83206 12.113 1.12429 12.1139 1.15069 12.1958C1.22443 12.4234 1.19894 12.6858 1.18437 12.933C1.18164 12.9793 1.05419 13.046 0.977719 13.0558C0.828418 13.0735 0.675476 13.0602 0.523444 13.0558C0.0746318 13.0433 0.0582452 13.0255 0.0527829 12.6049C0.0464104 12.1255 0.0609763 12.113 0.66182 12.0748Z" fill="#656565"/>
<path d="M0.153524 8.42131C0.108005 8.32704 0.0688595 8.28613 0.0725009 8.24878C0.0943498 8.00776 0.0497417 7.61911 0.170821 7.55953C0.4148 7.43946 0.753458 7.47682 1.04842 7.50172C1.11396 7.50706 1.20136 7.72762 1.20955 7.8539C1.24688 8.4222 1.23322 8.42665 0.664241 8.4222C0.486719 8.42042 0.308287 8.4222 0.153524 8.4222V8.42131Z" fill="#656565"/>
<path d="M0.59589 6.9014C0.0879032 6.89428 -0.122392 6.59368 0.0733373 6.13299C0.1052 6.05829 0.217176 5.99603 0.305482 5.96935C0.402891 5.94 0.514867 5.9569 0.62138 5.95512C1.20493 5.94534 1.36606 6.14455 1.20675 6.70574C1.1849 6.78311 1.08385 6.87294 1.00282 6.89339C0.875373 6.92452 0.733355 6.9014 0.5968 6.9014H0.59589Z" fill="#656565"/>
<path d="M16.322 11.3508H11.3459V6.0654H16.322V11.3508Z" fill="#656565"/>
<path d="M11.3417 12.973V12.1984C11.4819 12.1877 11.6121 12.1682 11.7423 12.1682C14.1803 12.1619 16.6173 12.1575 19.0553 12.153C19.5396 12.153 19.7117 12.3638 19.5496 12.8103C19.5159 12.9028 19.3275 12.9935 19.2073 12.9953C18.5109 13.0104 17.8145 12.997 17.118 12.9962C15.3464 12.9944 13.5749 12.9935 11.8033 12.9917C11.6567 12.9917 11.5092 12.9801 11.3408 12.9721L11.3417 12.973Z" fill="#656565"/>
<path d="M19.5129 13.7361C19.5384 13.8037 19.5557 13.8304 19.5575 13.858C19.5903 14.2985 19.3775 14.5182 18.9193 14.517C16.5542 14.5134 14.189 14.5107 11.8239 14.5081C11.6755 14.5081 11.5271 14.5081 11.3469 14.5081V13.7361H19.512H19.5129Z" fill="#656565"/>
<path d="M11.3391 16.004C11.3291 15.8652 11.3154 15.7505 11.3154 15.6349C11.3154 15.5193 11.3291 15.4045 11.3391 15.2604C11.4893 15.2498 11.6213 15.2329 11.7524 15.2329C14.1931 15.2293 16.6338 15.2275 19.0745 15.2267C19.5698 15.2267 19.6089 15.2782 19.5707 15.7674C19.557 15.9488 19.4951 16.0458 19.3021 16.0422C19.2411 16.0413 19.181 16.0422 19.12 16.0422C16.6493 16.0404 14.1785 16.0395 11.7069 16.036C11.5904 16.036 11.4738 16.0164 11.3382 16.004H11.3391Z" fill="#656565"/>
<path d="M19.488 17.5381H11.3447V16.7768C11.505 16.7679 11.6652 16.751 11.8263 16.751C14.1896 16.7475 16.553 16.7457 18.9163 16.743C19.63 16.743 19.6892 16.8222 19.488 17.5372V17.5381Z" fill="#656565"/>
<path d="M12.7843 5.0551V4.30537C12.9454 4.2947 13.0902 4.27602 13.2358 4.27602C14.7197 4.27158 16.2046 4.27425 17.6885 4.26268C17.9752 4.26002 18.15 4.29203 18.1318 4.64155C18.1172 4.92881 18.1054 5.10935 17.7221 5.10401C16.1782 5.08267 14.6333 5.09067 13.0884 5.08712C13.001 5.08712 12.9136 5.07022 12.7843 5.05599V5.0551Z" fill="#656565"/>
<path d="M19.5493 6.81424H16.9529V6.05384C17.073 6.04228 17.2151 6.01827 17.358 6.01649C17.9161 6.01026 18.4732 6.00937 19.0313 6.00848C19.399 6.00848 19.5793 6.18606 19.572 6.54121C19.5702 6.61325 19.5611 6.68528 19.5502 6.81424H19.5493Z" fill="#656565"/>
<path d="M16.957 8.37329V7.54263C17.7591 7.54263 18.542 7.53908 19.3249 7.54441C19.5953 7.54619 19.5798 7.74985 19.5671 7.93039C19.5543 8.1056 19.649 8.3644 19.3376 8.36885C18.5538 8.3813 17.77 8.37329 16.957 8.37329Z" fill="#656565"/>
<path d="M16.9817 9.87363C16.9589 9.78647 16.9353 9.73044 16.9316 9.67352C16.8897 9.09188 16.8998 9.08121 17.496 9.0732C17.994 9.06698 18.4929 9.05987 18.9909 9.05631C19.5762 9.05186 19.6108 9.08832 19.5662 9.65396C19.5608 9.72421 19.5307 9.79358 19.5089 9.87451H16.9817V9.87363Z" fill="#656565"/>
<path d="M16.9511 11.4078V10.6251H19.4956C19.5193 10.6767 19.5502 10.7149 19.5539 10.7559C19.6139 11.3962 19.6012 11.4086 18.9603 11.4078C18.2994 11.4069 17.6394 11.4078 16.9511 11.4078Z" fill="#656565"/>
</g>
<defs>
<clipPath id="clip0_82_359">
<rect width="22" height="22" fill="white"/>
</clipPath>
</defs>
</svg>
