<svg width="23" height="19" viewBox="0 0 23 19" fill="none" xmlns="http://www.w3.org/2000/svg">
<g clip-path="url(#clip0_82_350)">
<path d="M2.36589 14.4825L2.42391 4.1887H1.26343V17.2865C2.85815 16.8741 4.4585 16.6117 6.07007 16.6005C7.55811 16.5911 9.04614 16.7991 10.5379 17.3052C9.61141 16.5536 8.57821 16.0007 7.47575 15.6408C6.08691 15.1872 4.58577 15.0373 3.0472 15.1685C2.69906 15.1966 2.39583 14.9379 2.36589 14.5912C2.36214 14.5537 2.36214 14.5181 2.36589 14.4825ZM19.395 3.65077C19.3913 3.62078 19.3875 3.58892 19.3875 3.55518C19.3875 3.52332 19.3894 3.49145 19.395 3.45959V1.37534C17.9351 1.23664 16.4302 1.39784 15.1162 1.89641C13.8883 2.36311 12.8289 3.12971 12.1401 4.22806V16.1C13.2108 15.384 14.3057 14.7955 15.4307 14.3944C16.7128 13.937 18.0305 13.7196 19.395 13.8283V3.65077ZM20.6584 2.92353H22.3692C22.7174 2.92353 23 3.20656 23 3.55518V18.1112C23 18.4598 22.7174 18.7428 22.3692 18.7428C22.2981 18.7428 22.2288 18.7316 22.1652 18.7091C20.4058 18.2049 18.6576 17.8694 16.9262 17.8581C15.2379 17.8469 13.5514 18.1449 11.8575 18.8928C11.7527 18.9621 11.6273 18.9996 11.4981 18.9977C11.3708 18.9996 11.2454 18.9621 11.1388 18.8928C9.4467 18.143 7.75838 17.8469 6.07007 17.8581C4.3387 17.8694 2.59237 18.2049 0.831055 18.7091C0.767415 18.7316 0.698161 18.7428 0.627034 18.7428C0.282633 18.7447 0 18.4617 0 18.113V3.55518C0 3.20656 0.282633 2.92353 0.630778 2.92353H2.42952L2.44076 0.813048C2.44263 0.509408 2.65601 0.258249 2.94238 0.19827C4.60262 -0.148479 6.62036 -0.0622602 8.38916 0.616244C9.61141 1.08482 10.7214 1.83268 11.5318 2.91229C12.3498 1.90578 13.4429 1.18229 14.6726 0.715583C16.3534 0.0764395 18.2926 -0.0772548 20.1175 0.190773C20.432 0.235757 20.6566 0.507534 20.6566 0.814922V2.92353H20.6584ZM12.7522 17.2096C14.1466 16.771 15.5392 16.5911 16.9318 16.5986C18.5434 16.608 20.1437 16.8722 21.7384 17.2846V4.1887H20.6584V14.5387C20.6584 14.8873 20.3758 15.1704 20.0277 15.1704C19.9771 15.1704 19.9285 15.1647 19.8817 15.1535C18.5003 14.9361 17.162 15.116 15.8556 15.5827C14.8036 15.9594 13.7704 16.5217 12.7522 17.2096ZM10.8786 15.9782V4.20932C10.2179 3.04162 9.14909 2.26002 7.94181 1.79707C6.57357 1.27226 5.03687 1.15417 3.6967 1.34536L3.62557 13.8677C5.0874 13.8152 6.51742 14.0008 7.8632 14.4412C8.93384 14.7899 9.94832 15.3016 10.8786 15.9782Z" fill="#656565"/>
</g>
<defs>
<clipPath id="clip0_82_350">
<rect width="23" height="19" fill="white"/>
</clipPath>
</defs>
</svg>
