<svg width="18" height="17" viewBox="0 0 18 17" fill="none" xmlns="http://www.w3.org/2000/svg">
<path d="M16.1497 5.03744C16.1612 5.18845 16.1612 5.33949 16.1612 5.4905C16.1612 10.0964 12.4493 15.4036 5.66497 15.4036C3.57486 15.4036 1.63325 14.8318 0 13.8395C0.296965 13.8718 0.582469 13.8826 0.890859 13.8826C2.61545 13.8826 4.20304 13.3325 5.47081 12.3941C3.84898 12.3617 2.48984 11.3585 2.02155 9.9778C2.25 10.0101 2.47841 10.0317 2.71828 10.0317C3.04949 10.0317 3.38073 9.98856 3.68909 9.91309C1.99874 9.58946 0.730934 8.18719 0.730934 6.49366V6.45053C1.22203 6.70942 1.79314 6.87121 2.39843 6.89276C1.40477 6.26712 0.753785 5.19924 0.753785 3.99111C0.753785 3.34391 0.936492 2.75064 1.25631 2.23287C3.0723 4.34708 5.80201 5.72777 8.86289 5.87881C8.8058 5.61992 8.77152 5.35028 8.77152 5.0806C8.77152 3.16053 10.4162 1.59647 12.4606 1.59647C13.5228 1.59647 14.4822 2.01715 15.156 2.69672C15.9898 2.54571 16.7893 2.25445 17.4974 1.85535C17.2233 2.66438 16.6408 3.34395 15.8756 3.77539C16.618 3.69992 17.3375 3.50571 17.9999 3.23607C17.4975 3.9264 16.8693 4.54122 16.1497 5.03744Z" fill="#18364D"/>
</svg>
