<svg width="19" height="19" viewBox="0 0 19 19" fill="none" xmlns="http://www.w3.org/2000/svg">
<path d="M9.49967 3.5625C13.458 3.5625 16.8391 6.02458 18.2087 9.5C16.8391 12.9754 13.458 15.4375 9.49967 15.4375C5.54148 15.4374 2.16121 12.9753 0.791667 9.5C2.16121 6.02468 5.54148 3.56264 9.49967 3.5625ZM9.49967 5.54199C7.31482 5.54217 5.54167 7.31511 5.54167 9.5C5.54167 11.6849 7.31482 13.4578 9.49967 13.458C11.6847 13.458 13.4587 11.685 13.4587 9.5C13.4587 7.315 11.6847 5.54199 9.49967 5.54199ZM9.49967 7.125C10.8138 7.125 11.8747 8.18583 11.8747 9.5C11.8747 10.8142 10.8138 11.875 9.49967 11.875C8.18566 11.8748 7.12467 10.8141 7.12467 9.5C7.12467 8.18594 8.18566 7.12518 9.49967 7.125Z" fill="#656565"/>
</svg>
