<svg width="24" height="24" viewBox="0 0 24 24" fill="none" xmlns="http://www.w3.org/2000/svg">
<g id="icon/action/visibility_off_24px">
<path id="icon/action/visibility_off_24px_2" d="M2.70996 3.13046C3.09996 2.74046 3.73988 2.74046 4.12988 3.13046L20.4404 19.4596C20.8303 19.8494 20.8301 20.4797 20.4404 20.8697C20.0504 21.2597 19.4203 21.2597 19.0303 20.8697L16.3096 18.15C14.9697 18.6699 13.5199 18.9703 12 18.9703C7.0001 18.9703 2.73007 15.8602 1 11.4703C1.76994 9.50045 3.05986 7.80031 4.67969 6.51035L2.70996 4.53964C2.32024 4.14971 2.32028 3.52042 2.70996 3.13046ZM7.49023 9.32968C7.18023 9.96968 7 10.7003 7 11.4703C7.00017 14.2302 9.24011 16.4703 12 16.4703C12.7698 16.4703 13.4898 16.2902 14.1396 15.9703L12.5703 14.4C12.3803 14.44 12.2 14.4703 12 14.4703C10.3401 14.4703 9.00017 13.1302 9 11.4703C9 11.2703 9.02957 11.08 9.05957 10.9L7.49023 9.32968ZM12 3.97031C16.9998 3.97031 21.2699 7.07983 23 11.4596C22.31 13.2195 21.2103 14.7598 19.8203 15.9898L16.7607 12.9303C16.9007 12.4704 17 11.9802 17 11.4703C17 8.71031 14.76 6.47031 12 6.47031C11.4901 6.47035 11.0002 6.5696 10.5303 6.70956L8.36035 4.53964C9.51021 4.1697 10.7302 3.97034 12 3.97031Z" fill="black" fill-opacity="0.54"/>
</g>
</svg>
