<svg width="24" height="24" viewBox="0 0 24 24" fill="none" xmlns="http://www.w3.org/2000/svg">
<g id="giao hang">
<path id="icon/maps/local_shipping_24px" d="M15 4C16.1 4 17 4.9 17 6V8H19.5C19.81 8 20.1098 8.15039 20.2998 8.40039L22.5996 11.4697C22.8596 11.8197 23 12.2399 23 12.6699V16C23 16.55 22.55 17 22 17H21C21 18.66 19.66 20 18 20C16.34 20 15 18.66 15 17H9C9 18.66 7.66 20 6 20C4.34 20 3 18.66 3 17C1.9 17 1 16.1 1 15V6C1 4.9 1.9 4 3 4H15ZM6 16C5.45 16 5 16.45 5 17C5 17.55 5.45 18 6 18C6.55 18 7 17.55 7 17C7 16.45 6.55 16 6 16ZM18 16C17.45 16 17 16.45 17 17C17 17.55 17.45 18 18 18C18.55 18 19 17.55 19 17C19 16.45 18.55 16 18 16ZM17 12H21.46L19.5 9.5H17V12Z" fill="#656565"/>
</g>
</svg>
