<svg width="23" height="17" viewBox="0 0 23 17" fill="none" xmlns="http://www.w3.org/2000/svg">
<g clip-path="url(#clip0_52_188)">
<path d="M22.7459 6.78326L19.0125 3.20133C18.4948 3.15814 17.9574 3.45506 17.5551 3.83295L7.98655 12.8323C7.7052 13.0968 7.4126 13.275 7.11719 13.3641L10.136 16.2604C11.1573 17.2402 13.2027 17.2402 14.224 16.2604L22.7431 8.087C23.0835 7.76039 23.0835 7.10717 22.7431 6.78056L22.7459 6.78326Z" fill="#656565"/>
<path d="M12.6372 5.37964L7.51107 10.2599C6.72049 11.013 5.90458 11.3936 5.08868 11.3936C5.08024 11.3936 5.06899 11.3936 5.06055 11.3936L6.56012 12.8323C6.88085 12.8674 7.19877 12.7271 7.53639 12.4085L17.105 3.40917C17.5101 3.02858 17.9799 2.76135 18.4413 2.65338L17.6339 1.87869C17.2935 1.55208 16.6126 1.55208 16.2722 1.87869L12.6906 5.31486C12.6766 5.33915 12.6597 5.36074 12.64 5.37964H12.6372Z" fill="#656565"/>
<path d="M5.08884 10.7916C5.73031 10.7916 6.39428 10.4704 7.06107 9.83341L7.17361 9.72813L4.42205 7.08015C3.77214 6.45392 3.41483 5.73861 3.38951 5.01251C3.367 4.35389 3.62021 3.73845 4.0985 3.27688C4.57679 2.8153 5.21826 2.57507 5.90193 2.59666C6.65875 2.62096 7.4015 2.96376 8.05141 3.58999C8.16113 3.69527 8.16113 3.86532 8.05141 3.97059C7.94168 4.07586 7.76443 4.07586 7.65471 3.97059C6.45618 2.818 5.17605 3.00155 4.49239 3.66018C3.80872 4.3161 3.6174 5.54966 4.81593 6.69955L7.57031 9.34754L8.14706 8.79689L5.71342 6.45662C5.36456 6.12191 4.78217 5.56046 4.99881 4.93693C5.04664 4.79657 5.207 4.72099 5.3533 4.76688C5.4996 4.81276 5.57838 4.96662 5.53055 5.10698C5.42364 5.4147 5.83722 5.81149 6.11012 6.07602L8.54657 8.41899L9.44969 7.56062L7.00761 5.21226C6.73471 4.95043 6.32113 4.55363 6.0004 4.65621C5.8541 4.70209 5.69654 4.62651 5.6459 4.48615C5.59807 4.34579 5.67685 4.19193 5.82315 4.14604C6.47306 3.9382 7.05544 4.49695 7.40431 4.83436L9.84639 7.18272L10.4231 6.63207L8.3018 4.59142C8.19208 4.48615 8.19208 4.3161 8.3018 4.21083C8.41153 4.10556 8.58878 4.10556 8.6985 4.21083L10.8227 6.25417L12.0831 5.053L7.06951 0.2456C6.72908 -0.081012 6.04823 -0.081012 5.7078 0.2456L0.255321 5.47678C-0.085107 5.8034 -0.085107 6.45662 0.255321 6.78323L4.2448 10.6108C4.52896 10.7296 4.81031 10.7916 5.08884 10.7916Z" fill="#656565"/>
</g>
<defs>
<clipPath id="clip0_52_188">
<rect width="23" height="17" fill="white"/>
</clipPath>
</defs>
</svg>
