<svg width="49" height="34" viewBox="0 0 49 34" fill="none" xmlns="http://www.w3.org/2000/svg">
<path d="M17.3104 34C14.5758 34 12.0049 32.9363 10.0713 31.005L1.36533 22.3098C-0.455112 20.4915 -0.455112 17.5436 1.36533 15.7254C3.1856 13.9073 6.13701 13.9073 7.95764 15.7254L16.6636 24.4208C16.8851 24.6421 17.1377 24.6885 17.3104 24.6885C17.4831 24.6885 17.7357 24.6421 17.9573 24.4208L41.0424 1.36355C42.8628 -0.454517 45.8142 -0.454517 47.6347 1.36355C49.4551 3.1818 49.4551 6.12966 47.6347 7.94791L24.5496 31.005C22.616 32.9363 20.045 34 17.3104 34V34Z" fill="url(#paint0_linear_42_229)"/>
<defs>
<linearGradient id="paint0_linear_42_229" x1="15.1935" y1="2.5412" x2="39.1765" y2="26.5532" gradientUnits="userSpaceOnUse">
<stop stop-color="#0B799D"/>
<stop offset="1" stop-color="#07485E"/>
</linearGradient>
</defs>
</svg>
