<svg width="22" height="22" viewBox="0 0 22 22" fill="none" xmlns="http://www.w3.org/2000/svg">
<path d="M11 1.83331C12.1916 1.83331 13.1999 2.60314 13.585 3.66632H17.417C18.4252 3.6665 19.25 4.49208 19.25 5.50031V18.3333C19.25 19.3415 18.4252 20.1661 17.417 20.1663H4.58301C3.57482 20.1661 2.75 19.3415 2.75 18.3333V5.50031C2.75 4.49208 3.57482 3.6665 4.58301 3.66632H8.41504C8.80012 2.60314 9.80845 1.83331 11 1.83331ZM11 14.2083C9.16667 14.2083 5.5 15.2168 5.5 17.0501V18.3333H16.5V17.0501C16.5 15.2168 12.8333 14.2083 11 14.2083ZM11 7.33331C9.47833 7.33331 8.25 8.56165 8.25 10.0833C8.25 11.605 9.47833 12.8333 11 12.8333C12.5217 12.8333 13.75 11.605 13.75 10.0833C13.75 8.56165 12.5217 7.33331 11 7.33331ZM11 3.66632C10.4958 3.66632 10.083 4.07915 10.083 4.58331C10.083 5.08748 10.4958 5.50031 11 5.50031C11.5042 5.5003 11.917 5.08748 11.917 4.58331C11.917 4.07915 11.5042 3.66632 11 3.66632Z" fill="black" fill-opacity="0.54"/>
</svg>
