<svg width="44" height="44" viewBox="0 0 44 44" fill="none" xmlns="http://www.w3.org/2000/svg">
<path d="M25.6666 7.2923C26.6749 7.2923 27.4995 8.1171 27.4996 9.12531V12.7923C29.5163 12.7923 31.1666 14.4426 31.1666 16.4593H36.6666C38.6832 16.4593 40.3335 18.1088 40.3336 20.1253V36.6253C40.3336 38.642 38.6833 40.2923 36.6666 40.2923H7.33362C5.31695 40.2923 3.66663 38.642 3.66663 36.6253V14.6253C3.66677 12.6088 5.31704 10.9593 7.33362 10.9593H13.1451L15.4 8.4837C16.0966 7.73222 17.0864 7.29241 18.1129 7.2923H25.6666ZM21.9996 16.4593C16.9399 16.4595 12.8338 20.5655 12.8336 25.6253C12.8336 30.6852 16.9398 34.7921 21.9996 34.7923C27.0596 34.7923 31.1666 30.6853 31.1666 25.6253C31.1665 20.5654 27.0595 16.4593 21.9996 16.4593ZM21.9996 20.1253C23.9646 20.1253 25.7808 21.1737 26.7633 22.8753C27.7457 24.5769 27.7456 26.6737 26.7633 28.3753C25.7808 30.077 23.9646 31.1253 21.9996 31.1253C20.0348 31.1252 18.2194 30.0769 17.2369 28.3753C16.2545 26.6736 16.2545 24.577 17.2369 22.8753C18.2194 21.1738 20.0349 20.1254 21.9996 20.1253ZM29.3336 9.89581C29.3336 9.10762 30.0665 8.5204 30.818 8.70343C33.0002 9.25399 34.704 10.9587 35.2545 13.1409C35.4377 13.8925 34.8514 14.6253 34.0631 14.6253C33.5132 14.6252 33.0186 14.277 32.8903 13.7454C32.5786 12.4255 31.5334 11.3987 30.2135 11.0687C29.6819 10.9404 29.3337 10.4274 29.3336 9.89581ZM30.6715 3.7171C35.6582 4.3221 39.6368 8.30075 40.2418 13.2874C40.3333 14.0023 39.7467 14.6252 39.0319 14.6253C38.4086 14.6253 37.8953 14.149 37.8219 13.5257C37.3452 9.6757 34.2832 6.63202 30.4332 6.13702C29.8099 6.06365 29.3336 5.55037 29.3336 4.92706C29.3337 4.21219 29.9566 3.62553 30.6715 3.7171Z" fill="#C1C7CD"/>
</svg>
