<svg width="30" height="27" viewBox="0 0 30 27" fill="none" xmlns="http://www.w3.org/2000/svg">
<path d="M15.1387 4.40271C17.8247 4.40271 20.0007 6.37273 20.001 8.80505C20.001 11.2375 17.8248 13.2084 15.1387 13.2084C12.4527 13.2081 10.2773 11.2374 10.2773 8.80505C10.2775 6.37287 12.4529 4.40294 15.1387 4.40271ZM15.1387 6.60388C13.802 6.60412 12.7082 7.59462 12.708 8.80505C12.708 10.0157 13.8019 11.007 15.1387 11.0072C16.4757 11.0072 17.5703 10.0158 17.5703 8.80505C17.5701 7.59447 16.4755 6.60388 15.1387 6.60388Z" fill="white"/>
<path d="M5.41551 22.0135V17.8591C5.41551 16.2023 6.75866 14.8591 8.41551 14.8591H22.4705C24.1273 14.8591 25.4705 16.2023 25.4705 17.8591V22.0135" stroke="white" stroke-width="2"/>
</svg>
