<svg width="24" height="24" viewBox="0 0 24 24" fill="none" xmlns="http://www.w3.org/2000/svg">
<rect width="23.5059" height="23.5059" rx="6" fill="#2BBEF9"/>
<path d="M12.6406 10.1019C12.9859 10.1019 13.2685 9.81937 13.2685 9.47402V8.21819H14.5243C14.8697 8.21819 15.1522 7.93563 15.1522 7.59027C15.1522 7.24492 14.8697 6.96236 14.5243 6.96236H13.2685V5.70653C13.2685 5.36117 12.9859 5.07861 12.6406 5.07861C12.2952 5.07861 12.0127 5.36117 12.0127 5.70653V6.96236H10.7568C10.4115 6.96236 10.1289 7.24492 10.1289 7.59027C10.1289 7.93563 10.4115 8.21819 10.7568 8.21819H12.0127V9.47402C12.0127 9.81937 12.2952 10.1019 12.6406 10.1019Z" fill="white"/>
<path d="M9.50102 15.7531C8.81031 15.7531 8.25146 16.3182 8.25146 17.0089C8.25146 17.6996 8.81031 18.2647 9.50102 18.2647C10.1917 18.2647 10.7568 17.6996 10.7568 17.0089C10.7568 16.3182 10.1917 15.7531 9.50102 15.7531Z" fill="white"/>
<path d="M15.7803 15.7531C15.0896 15.7531 14.5308 16.3182 14.5308 17.0089C14.5308 17.6996 15.0896 18.2647 15.7803 18.2647C16.471 18.2647 17.0361 17.6996 17.0361 17.0089C17.0361 16.3182 16.471 15.7531 15.7803 15.7531Z" fill="white"/>
<path d="M10.1921 12.6135H14.87C15.341 12.6135 15.7554 12.356 15.9689 11.9667L18.0913 8.11761C18.2608 7.81622 18.1478 7.43319 17.8464 7.26365C17.545 7.10039 17.1619 7.20714 16.9987 7.50854L14.87 11.3577H10.4621L7.95671 6.06433C7.85624 5.84456 7.63019 5.70642 7.39158 5.70642H6.3618C6.01645 5.70642 5.73389 5.98898 5.73389 6.33434C5.73389 6.67969 6.01645 6.96225 6.3618 6.96225H6.98972L9.25021 11.7281L8.40252 13.2602C7.94415 14.1016 8.54695 15.1251 9.50138 15.1251H16.4084C16.7538 15.1251 17.0364 14.8426 17.0364 14.4972C17.0364 14.1519 16.7538 13.8693 16.4084 13.8693H9.50138L10.1921 12.6135Z" fill="white"/>
</svg>
